<svg id="Capa_2" data-name="Capa 2" xmlns="http://www.w3.org/2000/svg" viewBox="0 0 50.9 74.49"><defs><style>.cls-1{fill:#110101;}</style></defs><title>download-icon</title><path class="cls-1" d="M64,43.76a4,4,0,0,0-5.69.47L44,61.1v-44a4,4,0,0,0-8.08,0V60.87L21.67,43.92a4,4,0,0,0-6.17,5.2L40.07,78.26,64.49,49.45A4,4,0,0,0,64,43.76Z" transform="translate(-14.55 -3.77)"/><path class="cls-1" d="M58.71,10.77H21.29a3.5,3.5,0,0,1,0-7H58.71a3.5,3.5,0,1,1,0,7Z" transform="translate(-14.55 -3.77)"/></svg>