<?xml version="1.0" encoding="utf-8"?>
<!-- Generator: Adobe Illustrator 23.1.0, SVG Export Plug-In . SVG Version: 6.00 Build 0)  -->
<svg version="1.1" id="Capa_1" xmlns="http://www.w3.org/2000/svg" xmlns:xlink="http://www.w3.org/1999/xlink" x="0px" y="0px"
	 viewBox="0 0 50.9 74.49" style="enable-background:new 0 0 50.9 74.49;" xml:space="preserve">
<style type="text/css">
	.st0{fill:#B22222;}
</style>
<title>download-icon</title>
<path class="st0" d="M49.45,39.99c-1.67-1.44-4.2-1.26-5.64,0.41c-0.02,0.02-0.03,0.04-0.05,0.06L29.45,57.33v-44
	c0-2.23-1.81-4.04-4.04-4.04s-4.04,1.81-4.04,4.04V57.1L7.12,40.15c-1.44-1.7-3.98-1.92-5.69-0.49s-1.92,3.98-0.48,5.69l24.57,29.14
	l24.42-28.81c1.44-1.68,1.25-4.2-0.43-5.64C49.49,40.02,49.47,40.01,49.45,39.99z"/>
<path class="st0" d="M44.16,7H6.74c-1.93,0-3.5-1.57-3.5-3.5S4.81,0,6.74,0h37.42c1.93,0,3.5,1.57,3.5,3.5S46.09,7,44.16,7L44.16,7z
	"/>
</svg>
