<?xml version="1.0" encoding="utf-8"?>
<!-- Generator: Adobe Illustrator 23.1.0, SVG Export Plug-In . SVG Version: 6.00 Build 0)  -->
<svg version="1.1" xmlns="http://www.w3.org/2000/svg" xmlns:xlink="http://www.w3.org/1999/xlink" x="0px" y="0px"
	 viewBox="0 0 210 210" style="enable-background:new 0 0 210 210;" xml:space="preserve">
<style type="text/css">
	.st0{display:none;}
	.st1{display:inline;}
	.st2{fill:#006087;}
	.st3{fill:#FFFFFF;}
</style>
<g id="Capa_1" class="st0">
	<g class="st1">
		<path class="st2" d="M194.2,0.1h-179C6.7,0.1-0.2,6.9-0.2,15.3V195c0,8.4,6.9,15.2,15.5,15.2h179c8.6,0,15.5-6.8,15.5-15.2V15.3
			C209.8,6.9,202.8,0.1,194.2,0.1"/>
		<g id="surface1_3_">
			<path class="st3" d="M177.1,163.8H32.4l-5.4-5.4V51.9l5.4-5.4h144.7l5.4,5.4v106.5L177.1,163.8z M37.8,153h133.9V57.3H37.8V153z"
				/>
			<path class="st3" d="M105,125.4c-4.8,0-9.5-1.9-12.7-5.1L29.9,57l7.7-7.6l62.4,63.3c1.2,1.2,3,1.9,5,1.9c0,0,0,0,0,0
				c2,0,3.7-0.7,4.9-1.8l62.4-62.8l7.7,7.7l-62.4,62.8C114.5,123.6,109.9,125.4,105,125.4C105,125.4,105,125.4,105,125.4z"/>
			
				<rect x="25.6" y="125" transform="matrix(0.6993 -0.7148 0.7148 0.6993 -75.2376 81.9947)" class="st3" width="68.4" height="10.9"/>
			
				<rect x="144.4" y="97.2" transform="matrix(0.7156 -0.6986 0.6986 0.7156 -48.5255 141.7857)" class="st3" width="10.9" height="66.6"/>
		</g>
	</g>
</g>
<g id="Capa_2">
	<g>
		<path class="st2" d="M194.2,0.1h-179C6.7,0.1-0.2,6.9-0.2,15.3V195c0,8.4,6.9,15.2,15.5,15.2h179c8.6,0,15.5-6.8,15.5-15.2V15.3
			C209.8,6.9,202.8,0.1,194.2,0.1"/>
		<path class="st3" d="M46.5,29c10,0,18.1,8.1,18.1,18.1c0,10-8.1,18.1-18.1,18.1c-10,0-18.1-8.1-18.1-18.1
			C28.4,37.1,36.5,29,46.5,29L46.5,29z M30.9,78.9h31.1v100.2H30.9V78.9z"/>
		<path class="st3" d="M81.6,78.9h29.9v13.7h0.4c4.2-7.9,14.3-16.2,29.5-16.2c31.5,0,37.4,20.8,37.4,47.7v55h-31.1v-48.7
			c0-11.6-0.2-26.6-16.2-26.6c-16.2,0-18.7,12.7-18.7,25.7v49.6H81.6V78.9"/>
	</g>
</g>
</svg>
