<?xml version="1.0" encoding="utf-8"?>
<!-- Generator: Adobe Illustrator 23.1.0, SVG Export Plug-In . SVG Version: 6.00 Build 0)  -->
<svg version="1.1" xmlns="http://www.w3.org/2000/svg" xmlns:xlink="http://www.w3.org/1999/xlink" x="0px" y="0px"
	 viewBox="0 0 210 210" style="enable-background:new 0 0 210 210;" xml:space="preserve">
<style type="text/css">
	.st0{display:none;}
	.st1{display:inline;}
	.st2{fill:#006087;}
	.st3{fill:#FFFFFF;}
</style>
<g id="Capa_1" class="st0">
	<g>
		<g class="st1">
			<path class="st2" d="M194.2,0.1h-179C6.7,0.1-0.2,6.9-0.2,15.3V195c0,8.4,6.9,15.2,15.5,15.2h179c8.6,0,15.5-6.8,15.5-15.2V15.3
				C209.8,6.9,202.8,0.1,194.2,0.1"/>
			<g id="surface1_3_">
				<path class="st3" d="M177.1,163.8H32.4l-5.4-5.4V51.9l5.4-5.4h144.7l5.4,5.4v106.5L177.1,163.8z M37.8,153h133.9V57.3H37.8V153z
					"/>
				<path class="st3" d="M105,125.4c-4.8,0-9.5-1.9-12.7-5.1L29.9,57l7.7-7.6l62.4,63.3c1.2,1.2,3,1.9,5,1.9l0,0
					c2,0,3.7-0.7,4.9-1.8L172.3,50l7.7,7.7l-62.4,62.8C114.5,123.6,109.9,125.4,105,125.4L105,125.4z"/>
				
					<rect x="25.6" y="125" transform="matrix(0.6993 -0.7148 0.7148 0.6993 -75.2753 81.9961)" class="st3" width="68.4" height="10.9"/>
				
					<rect x="144.4" y="97.2" transform="matrix(0.7156 -0.6986 0.6986 0.7156 -48.521 141.8119)" class="st3" width="10.9" height="66.6"/>
			</g>
		</g>
	</g>
	<g class="st1">
		<g>
			<path class="st2" d="M194.2,0.1h-179C6.7,0.1-0.2,6.9-0.2,15.3V195c0,8.4,6.9,15.2,15.5,15.2h179c8.6,0,15.5-6.8,15.5-15.2V15.3
				C209.8,6.9,202.8,0.1,194.2,0.1"/>
			<path class="st2" d="M46.5,29c10,0,18.1,8.1,18.1,18.1s-8.1,18.1-18.1,18.1s-18.1-8.1-18.1-18.1S36.5,29,46.5,29L46.5,29z
				 M30.9,78.9H62v100.2H30.9V78.9z"/>
			<path class="st2" d="M81.6,78.9h29.9v13.7h0.4c4.2-7.9,14.3-16.2,29.5-16.2c31.5,0,37.4,20.8,37.4,47.7v55h-31.1v-48.7
				c0-11.6-0.2-26.6-16.2-26.6c-16.2,0-18.7,12.7-18.7,25.7v49.6H81.6V78.9"/>
		</g>
		<path class="st2" d="M73.4,210.8c-22.8,0-45.6,0-68.3,0c-3.1-1.5-4.1-3.9-4.1-7.3C1,138.1,1,72.8,0.9,7.4C0.9,2.8,3.1,0,8.4,0
			c57,0.1,114,0.1,171,0.1c8.1,0,16.2-0.1,24.3,0.1c1.4,0,3,0.5,4.2,1.3c2,1.3,2.1,3.5,2.1,5.7c0,67,0,134,0,201c0,0.9,0,1.8,0,2.7
			c-23.7,0-47.5,0-71.2,0c-2.6-1-3.8-3-3.9-5.7c0-0.9-0.1-1.8-0.1-2.7c0-8.2,0.1-16.5,0.1-24.7c0-5.1,0.2-10.4-1.8-15.2
			c-1.3-3.3-3.2-6.3-4.9-9.5c0.3-0.1,1-0.2,1.6-0.3c7-1.8,14.1-3.1,20.8-5.5c9.5-3.4,16.9-9.5,21.6-18.6c3.5-6.7,5.9-13.9,6.9-21.4
			c1.3-9.6,0.4-19.1-3.5-28c-1.6-3.7-4-7-6-10.5c-1-1.7-1.5-3.4-0.9-5.5c2.2-8.2,1.5-16.3-1.2-24.3c-0.7-2.1-2-3.1-4.2-2.8
			c-2.8,0.4-5.7,0.5-8.2,1.6c-5.9,2.6-11.6,5.6-17.3,8.5c-1.9,1-3.8,1.3-5.9,0.8c-15.4-3.6-30.8-3.9-46.3-1
			c-8.6,1.6-6.2,2.4-14.8-2.5C64,39.9,57,36.8,49.1,36c-1.9-0.2-3,0.4-3.7,2.2c-2.8,8.1-3.7,16.3-1.6,24.6c0.7,2.6,0.3,4.6-1.4,6.6
			c-4.8,5.9-7.5,12.7-8.7,20.1c-1.5,9.8-0.5,19.4,2.2,28.9c2.8,10,8.3,18.1,16.9,24.1c6.4,4.4,13.6,7,21.2,8.6
			c3.5,0.7,7.1,1.4,10.9,2.1c-3.2,3.7-5.4,7.7-6.3,12.3c-0.4,2.1-1.5,3.3-3.6,3.8c-0.8,0.2-1.5,0.6-2.3,0.8c-7.1,2-13.8,1.6-20-2.7
			c-4-2.8-6.5-6.8-9.5-10.4c-1.9-2.4-4.1-4.6-6.6-6.4c-3.7-2.7-8-3.8-12.7-2.8c-2.1,0.4-2.5,1.7-1.1,3.2c1.1,1.2,2.4,2.3,3.7,3.2
			c3.2,2.2,6.1,4.7,8,8.1c1.8,3.1,3.4,6.4,5.1,9.6c2.8,5.4,7,9.3,12.7,11.4c5.2,1.9,10.7,2.4,16.2,2c3-0.2,5.9-0.4,9-0.5
			c0,6.8-0.1,13.3,0,19.8C77.8,207.7,76.7,209.9,73.4,210.8z"/>
	</g>
</g>
<g id="Capa_2">
	<path class="st2" d="M73.4,210.8c-22.8,0-45.6,0-68.3,0c-3.1-1.5-4.1-3.9-4.1-7.3C1,138.1,1,72.8,0.9,7.4C0.9,2.8,3.1,0,8.4,0
		c57,0.1,114,0.1,171,0.1c8.1,0,16.2-0.1,24.3,0.1c1.4,0,3,0.5,4.2,1.3c2,1.3,2.1,3.5,2.1,5.7c0,67,0,134,0,201c0,0.9,0,1.8,0,2.7
		c-23.7,0-47.5,0-71.2,0c-2.6-1-3.8-3-3.9-5.7c0-0.9-0.1-1.8-0.1-2.7c0-8.2,0.1-16.5,0.1-24.7c0-5.1,0.2-10.4-1.8-15.2
		c-1.3-3.3-3.2-6.3-4.9-9.5c0.3-0.1,1-0.2,1.6-0.3c7-1.8,14.1-3.1,20.8-5.5c9.5-3.4,16.9-9.5,21.6-18.6c3.5-6.7,5.9-13.9,6.9-21.4
		c1.3-9.6,0.4-19.1-3.5-28c-1.6-3.7-4-7-6-10.5c-1-1.7-1.5-3.4-0.9-5.5c2.2-8.2,1.5-16.3-1.2-24.3c-0.7-2.1-2-3.1-4.2-2.8
		c-2.8,0.4-5.7,0.5-8.2,1.6c-5.9,2.6-11.6,5.6-17.3,8.5c-1.9,1-3.8,1.3-5.9,0.8c-15.4-3.6-30.8-3.9-46.3-1
		c-8.6,1.6-6.2,2.4-14.8-2.5C64,39.9,57,36.8,49.1,36c-1.9-0.2-3,0.4-3.7,2.2c-2.8,8.1-3.7,16.3-1.6,24.6c0.7,2.6,0.3,4.6-1.4,6.6
		c-4.8,5.9-7.5,12.7-8.7,20.1c-1.5,9.8-0.5,19.4,2.2,28.9c2.8,10,8.3,18.1,16.9,24.1c6.4,4.4,13.6,7,21.2,8.6
		c3.5,0.7,7.1,1.4,10.9,2.1c-3.2,3.7-5.4,7.7-6.3,12.3c-0.4,2.1-1.5,3.3-3.6,3.8c-0.8,0.2-1.5,0.6-2.3,0.8c-7.1,2-13.8,1.6-20-2.7
		c-4-2.8-6.5-6.8-9.5-10.4c-1.9-2.4-4.1-4.6-6.6-6.4c-3.7-2.7-8-3.8-12.7-2.8c-2.1,0.4-2.5,1.7-1.1,3.2c1.1,1.2,2.4,2.3,3.7,3.2
		c3.2,2.2,6.1,4.7,8,8.1c1.8,3.1,3.4,6.4,5.1,9.6c2.8,5.4,7,9.3,12.7,11.4c5.2,1.9,10.7,2.4,16.2,2c3-0.2,5.9-0.4,9-0.5
		c0,6.8-0.1,13.3,0,19.8C77.8,207.7,76.7,209.9,73.4,210.8z"/>
</g>
</svg>
